<?xml version="1.0" encoding="utf-8"?>
<!-- Generator: Adobe Illustrator 23.0.2, SVG Export Plug-In . SVG Version: 6.00 Build 0)  -->
<svg version="1.1" id="Layer_1" xmlns="http://www.w3.org/2000/svg" xmlns:xlink="http://www.w3.org/1999/xlink" x="0px" y="0px"
	 viewBox="0 0 100 100" style="enable-background:new 0 0 100 100;" xml:space="preserve">
<style type="text/css">
	.st0{fill:#211E61;}
	.st1{fill:#D90629;}
	.st2{fill:#FFFFFF;}
</style>
<g>
	<path class="st0" d="M90.5,44.42c-0.19,0-0.36,0.04-0.43,0.34c0,0-0.54,1.27-1.5,1.75c-0.44,0.22-0.62,0.34-1.61,0.31h-4.98
		c-2.69-0.19-2.97-3.01-2.97-3.01c0-0.34-0.04-0.8-0.04-0.99v-3.2c0.07-2.88,2.31-3.54,2.31-3.54c0.32-0.1,0.86-0.1,1.05-0.1h4.98
		c2.26,0.07,2.86,2.54,2.86,2.54c0.09,0.18,0.23,0.31,0.42,0.31h9.04c0.19,0,0.35-0.16,0.35-0.35v-0.97
		c-0.13-6.7-6.22-8.32-7.48-8.29c-0.34,0-0.81-0.03-1.01-0.03H77.44c-4.28,0.02-6.71,3.18-7.57,5.35c-0.38,0.95-0.49,1.77-0.51,2.11
		c-0.02,0.39-0.05,1.02-0.05,1.21v7.42c0.39,7.09,6.54,8.28,7.46,8.31c0.31,0.01,0.83,0.03,1.02,0.03h14.07
		c6.43-0.34,8.09-5.97,8.11-7.77c0.01-0.52,0.02-0.72,0.02-0.92v-0.16c0-0.2-0.16-0.35-0.35-0.35H90.5z"/>
	<path class="st0" d="M35.58,29.83c0.1-0.17,0.02-0.3-0.17-0.3H0.39c-0.19,0-0.35,0.16-0.35,0.35v6.74c0,0.19,0.16,0.35,0.35,0.35
		h8.59c0.19,0,0.35,0.16,0.35,0.35v15.6c0,0.19,0.16,0.35,0.35,0.35H23.2c0.19,0,0.35-0.16,0.35-0.35v-15.6
		c0-0.19,0.16-0.35,0.35-0.35h7.09c0.19,0,0.43-0.14,0.53-0.3L35.58,29.83z"/>
	<path class="st0" d="M41.23,29.53c-0.19,0-0.46,0.11-0.59,0.26c0,0-6.21,6.17-6.19,14.76c0.01,5.3,2.17,8.44,2.17,8.44
		c0.12,0.15,0.37,0.28,0.56,0.28h8.86c0.19,0,0.25-0.12,0.13-0.27c0,0-2.86-3.64-2.8-8.59c0.04-4.44,2.66-7.23,2.66-7.23
		c0.11-0.15,0.37-0.28,0.56-0.28h5.57c0.19,0,0.35,0.16,0.35,0.35v15.66c0,0.19,0.16,0.35,0.35,0.35h12.59
		c0.2,0,0.35-0.16,0.35-0.35V29.88c0-0.19-0.16-0.35-0.35-0.35H41.23z"/>
	<path class="st1" d="M43.37,44.41c0,0.99,0.11,1.91,0.28,2.78h18.08l2.38-3.74H43.41C43.39,43.76,43.37,44.08,43.37,44.41"/>
	<path class="st1" d="M44.01,40.69c-0.24,0.69-0.44,1.46-0.55,2.29h20.95l1.45-2.29H44.01z"/>
	<path class="st0" d="M14.82,62.61h1.47c-0.27-0.9-0.51-1.76-0.71-2.59C15.32,60.92,15.06,61.78,14.82,62.61 M43.41,59.71
		c-1.03,0-1.41,0.81-1.41,2.24c0,1.54,0.39,2.39,1.43,2.39c0.89,0,1.35-0.66,1.35-2.26C44.79,60.62,44.48,59.71,43.41,59.71
		 M64.18,62.25h-0.85v1.95h0.85c0.45,0,0.71-0.13,0.85-0.27c0.23-0.21,0.26-0.52,0.26-0.71c0-0.37-0.13-0.59-0.26-0.71
		C64.79,62.28,64.45,62.25,64.18,62.25 M99.61,56.77H0.35C0.16,56.77,0,56.93,0,57.12v9.3c0,0.2,0.16,0.35,0.35,0.35h99.26
		c0.19,0,0.35-0.16,0.35-0.35v-9.3C99.96,56.93,99.8,56.77,99.61,56.77 M9.24,59.87h-1.5v5.15H6.74v-5.15H5.23v-0.83h4.13
		L9.24,59.87z M16.99,65.01l-0.48-1.57h-1.93l-0.48,1.57h-1.03l1.96-5.97h1.14l1.91,5.97H16.99z M25.2,65.1
		c-0.79,0-1.43-0.3-1.89-0.86c-0.45-0.54-0.69-1.27-0.69-2.11c0-0.71,0.13-1.3,0.4-1.8c0.45-0.85,1.27-1.37,2.2-1.37
		c0.58,0,1.13,0.17,1.48,0.47l-0.46,0.65c-0.32-0.24-0.65-0.34-1.02-0.34c-0.51,0-0.93,0.26-1.19,0.72
		c-0.21,0.36-0.31,0.86-0.31,1.56c0,0.71,0.08,1.13,0.23,1.47c0.26,0.57,0.75,0.84,1.33,0.84c0.42,0,0.73-0.11,1.07-0.38l0.47,0.63
		C26.37,64.92,25.84,65.1,25.2,65.1 M36.15,65.09l-0.33-0.04c-0.28-0.03-0.68-0.08-0.95-0.33c-0.22-0.23-0.27-0.53-0.32-0.78
		l-0.2-0.92c-0.04-0.18-0.11-0.44-0.28-0.59c-0.18-0.16-0.42-0.18-0.59-0.18h-0.57v2.75h-0.99v-5.97h0.99v2.41h0.66
		c0.19,0,0.42-0.02,0.6-0.19c0.15-0.16,0.19-0.39,0.24-0.56l0.16-0.73c0.05-0.2,0.11-0.49,0.32-0.68c0.2-0.2,0.42-0.23,0.77-0.28
		l0.35-0.05l0.19,0.68l-0.28,0.07c-0.11,0.03-0.24,0.05-0.34,0.15c-0.09,0.08-0.15,0.25-0.18,0.39l-0.16,0.62
		c-0.06,0.25-0.11,0.5-0.35,0.73c-0.11,0.1-0.26,0.19-0.42,0.24v0.02c0.12,0.04,0.25,0.11,0.38,0.22c0.22,0.21,0.31,0.42,0.38,0.68
		l0.27,0.96c0.06,0.22,0.12,0.35,0.2,0.42c0.07,0.07,0.23,0.15,0.36,0.18l0.26,0.08L36.15,65.09z M43.44,65.1
		c-1.7,0-2.54-1.31-2.54-3.08c0-1.96,1-3.07,2.5-3.07c1.68,0,2.49,1.34,2.49,3.07C45.89,63.89,44.99,65.1,43.44,65.1 M56.01,65.01
		l-0.28-3.7c-0.03-0.38-0.04-0.86-0.04-1.03c-0.04,0.2-0.12,0.58-0.23,0.96l-1.09,3.78h-0.84l-0.99-3.62
		c-0.11-0.4-0.23-0.93-0.26-1.13c0,0.2-0.03,0.77-0.06,1.14l-0.26,3.61h-0.97l0.55-5.97h1.32l0.91,3.38
		c0.13,0.5,0.19,0.84,0.22,1.02c0.03-0.18,0.1-0.59,0.22-1l0.94-3.4h1.32l0.53,5.97H56.01z M65.97,64.46
		c-0.5,0.51-1.27,0.55-1.85,0.55h-1.78v-5.97h3.59l-0.13,0.81h-2.47v1.59h0.83c0.45,0,1.21,0,1.74,0.52
		c0.42,0.41,0.48,0.97,0.48,1.31C66.39,63.6,66.33,64.08,65.97,64.46 M74.87,65.01l-0.48-1.57h-1.93l-0.48,1.57h-1.03l1.96-5.97
		h1.15l1.91,5.97H74.87z M84.8,65.01H83.8v-2.76h-2.04v2.76h-0.99v-5.97h0.99v2.4h2.04v-2.4h0.99V65.01z M94.54,65.09l-0.33-0.04
		c-0.28-0.03-0.68-0.08-0.95-0.33c-0.23-0.23-0.27-0.53-0.32-0.78l-0.2-0.92c-0.05-0.18-0.11-0.44-0.28-0.59
		c-0.18-0.16-0.42-0.18-0.59-0.18h-0.57v2.75h-0.99v-5.97h0.99v2.41h0.66c0.19,0,0.42-0.02,0.61-0.19c0.16-0.16,0.2-0.39,0.24-0.56
		l0.17-0.73c0.04-0.2,0.11-0.49,0.32-0.68c0.2-0.2,0.42-0.23,0.77-0.28l0.36-0.05l0.19,0.68l-0.28,0.07
		c-0.11,0.03-0.24,0.05-0.34,0.15c-0.09,0.08-0.15,0.25-0.18,0.39l-0.15,0.62c-0.06,0.25-0.11,0.5-0.35,0.73
		c-0.11,0.1-0.26,0.19-0.42,0.24v0.02c0.12,0.04,0.25,0.11,0.37,0.22c0.22,0.21,0.31,0.42,0.38,0.68l0.27,0.96
		c0.06,0.22,0.12,0.35,0.2,0.42c0.07,0.07,0.23,0.15,0.36,0.18l0.26,0.08L94.54,65.09z M72.7,62.61h1.47
		c-0.27-0.9-0.51-1.76-0.71-2.59C73.21,60.92,72.95,61.78,72.7,62.61"/>
</g>
</svg>
